:FULLY-SPECIFIED
:FORCE-ALL-JOINTS-BE-3DOF
:DEGREES
204
root 4.972 15.4197 -25.5226 7.27975 5.64073 2.32485
lfemur -3.82861 -0.0495039 6.02583
ltibia 17.7451 -0 0
lfoot -20.2399 -16.8266 -0.280823
ltoes 47.0511 -0 0
rfemur -25.4734 -15.125 -5.59108
rtibia 46.2689 -0 0
rfoot -26.4101 7.62785 -0.145184
rtoes 54.7122 -0 0
lowerback -1.66027 -2.84489 -0.666756
upperback -0.051958 -3.7297 -5.0265
thorax 0.586826 -1.87114 -4.87856
lowerneck -12.0358 -0.106315 3.83085
upperneck 3.32018 -0.907035 2.72998
head 3.26029 -0.270889 0.151138
lclavicle 1.47101e-014 3.65764e-014 0
lhumerus -56.7037 -42.2658 115.341
lradius 55.7744 -0 0
lwrist 25.353 0 0
lhand 28.0393 27.6992 0.443783
lfingers 7.12502 -0 0
lthumb 51.7429 46.4654 -0.0199249
rclavicle 1.47101e-014 3.65764e-014 0
rhumerus -29.351 24.3154 -46.9113
rradius 106.857 -0 0
rwrist -4.59423 0 0
rhand -5.43088 -22.1176 3.42878
rfingers 7.12502 -0 0
rthumb 20.1103 -48.3945 4.2245
205
root 4.9487 15.4015 -25.5352 7.33892 5.32239 2.23477
lfemur -3.88269 0.378327 6.09085
ltibia 18.0883 -0 0
lfoot -20.5486 -16.388 -0.276095
ltoes 46.6581 -0 0
rfemur -25.9091 -15.4525 -5.35948
rtibia 46.5156 -0 0
rfoot -26.5268 8.22811 -0.142738
rtoes 55.0658 -0 0
lowerback -1.55978 -2.87245 -0.625068
upperback -0.030667 -3.7711 -4.9479
thorax 0.551706 -1.89196 -4.81539
lowerneck -11.9995 0.0786187 3.93578
upperneck 3.29391 -0.665319 2.60706
head 3.24385 -0.155755 0.108063
lclavicle 1.47101e-014 3.65764e-014 0
lhumerus -56.8816 -42.2993 115.498
lradius 55.8651 -0 0
lwrist 25.582 0 0
lhand 27.4253 27.3502 0.436303
lfingers 7.12502 -0 0
lthumb 51.192 46.4828 -0.0195895
rclavicle 1.47101e-014 3.65764e-014 0
rhumerus -28.0887 22.9263 -45.4618
rradius 106.011 -0 0
rwrist -4.37322 0 0
rhand -7.22023 -23.0631 3.36973
rfingers 7.12502 -0 0
rthumb 18.3907 -49.6099 4.1516
206
root 4.9254 15.3833 -25.5478 7.39856 5.00415 2.14441
lfemur -3.9363 0.806218 6.15547
ltibia 18.4315 -0 0
lfoot -20.8574 -15.9494 -0.269004
ltoes 46.2652 -0 0
rfemur -26.3469 -15.7783 -5.12492
rtibia 46.7624 -0 0
rfoot -26.6435 8.82836 -0.139071
rtoes 55.4194 -0 0
lowerback -1.4593 -2.90008 -0.583427
upperback -0.00943192 -3.81252 -4.86933
thorax 0.516562 -1.91275 -4.75222
lowerneck -11.9628 0.263486 4.04083
upperneck 3.26713 -0.423659 2.48403
head 3.22733 -0.0406337 0.0649553
lclavicle 1.47101e-014 3.65764e-014 0
lhumerus -57.0597 -42.3325 115.655
lradius 55.9557 -0 0
lwrist 25.811 0 0
lhand 26.8115 27.0013 0.425083
lfingers 7.12502 -0 0
lthumb 50.641 46.5002 -0.0190863
rclavicle 1.47101e-014 3.65764e-014 0
rhumerus -26.8771 21.509 -44.0599
rradius 105.166 -0 0
rwrist -4.15222 0 0
rhand -9.00823 -24.0061 3.28125
rfingers 7.12502 -0 0
rthumb 16.6732 -50.8225 4.04238
207
root 4.90211 15.3652 -25.5605 7.45867 4.686 2.05376
lfemur -3.98943 1.23417 6.2197
ltibia 18.7747 -0 0
lfoot -21.166 -15.5109 -0.25955
ltoes 45.8722 -0 0
rfemur -26.7868 -16.1023 -4.8874
rtibia 47.0091 -0 0
rfoot -26.7601 9.42861 -0.134181
rtoes 55.7731 -0 0
lowerback -1.35884 -2.92778 -0.541834
upperback 0.0117472 -3.85398 -4.79076
thorax 0.481394 -1.9335 -4.68903
lowerneck -11.9257 0.448285 4.146
upperneck 3.23983 -0.182057 2.3609
head 3.21072 0.0744754 0.0218142
lclavicle 1.47101e-014 3.65764e-014 0
lhumerus -57.238 -42.3653 115.812
lradius 56.0464 -0 0
lwrist 26.04 0 0
lhand 26.1977 26.6525 0.410126
lfingers 7.12502 -0 0
lthumb 50.0901 46.5177 -0.0184154
rclavicle 1.47101e-014 3.65764e-014 0
rhumerus -25.7142 20.065 -42.7034
rradius 104.32 -0 0
rwrist -3.93121 0 0
rhand -10.7943 -24.9459 3.16345
rfingers 7.12502 -0 0
rthumb 14.9587 -52.031 3.89699
208
root 4.87881 15.347 -25.5731 7.51927 4.36794 1.96281
lfemur -4.04209 1.66218 6.28355
ltibia 19.1179 -0 0
lfoot -21.4746 -15.0724 -0.247734
ltoes 45.4793 -0 0
rfemur -27.2288 -16.4245 -4.64691
rtibia 47.2558 -0 0
rfoot -26.8767 10.0288 -0.128069
rtoes 56.1267 -0 0
lowerback -1.2584 -2.95556 -0.500288
upperback 0.0328704 -3.89546 -4.7122
thorax 0.446203 -1.95421 -4.62583
lowerneck -11.8883 0.633016 4.2513
upperneck 3.21201 0.0594854 2.23765
head 3.19402 0.189572 -0.0213604
lclavicle 1.47101e-014 3.65764e-014 0
lhumerus -57.4166 -42.3978 115.97
lradius 56.1371 -0 0
lwrist 26.269 0 0
lhand 25.584 26.3039 0.391435
lfingers 7.12502 -0 0
lthumb 49.5391 46.5351 -0.017577
rclavicle 1.47101e-014 3.65764e-014 0
rhumerus -24.598 18.5961 -41.3902
rradius 103.475 -0 0
rwrist -3.7102 0 0
rhand -12.5781 -25.8813 3.01649
rfingers 7.12502 -0 0
rthumb 13.2479 -53.2344 3.71563
209
root 4.85551 15.3289 -25.5857 7.58034 4.04999 1.87157
lfemur -4.09428 2.09025 6.34701
ltibia 19.4611 -0 0
lfoot -21.7831 -14.6341 -0.233558
ltoes 45.0863 -0 0
rfemur -27.6729 -16.745 -4.40342
rtibia 47.5026 -0 0
rfoot -26.9932 10.6291 -0.120737
rtoes 56.4803 -0 0
lowerback -1.15798 -2.98341 -0.458791
upperback 0.0539376 -3.93697 -4.63366
thorax 0.410989 -1.97488 -4.56261
lowerneck -11.8506 0.817678 4.35672
upperneck 3.18368 0.300967 2.11428
head 3.17724 0.304656 -0.0645689
lclavicle 1.47101e-014 3.65764e-014 0
lhumerus -57.5953 -42.4299 116.127
lradius 56.2278 -0 0
lwrist 26.498 0 0
lhand 24.9704 25.9555 0.369011
lfingers 7.12502 -0 0
lthumb 48.9882 46.5525 -0.0165711
rclavicle 1.47101e-014 3.65764e-014 0
rhumerus -23.5266 17.1039 -40.118
rradius 102.629 -0 0
rwrist -3.48919 0 0
rhand -14.3589 -26.8117 2.84054
rfingers 7.12502 -0 0
rthumb 11.5417 -54.4316 3.49855
